<?xml version="1.0" standalone="no"?>
<!DOCTYPE svg PUBLIC "-//W3C//DTD SVG 20010904//EN"
 "http://www.w3.org/TR/2001/REC-SVG-20010904/DTD/svg10.dtd">
<svg version="1.0" xmlns="http://www.w3.org/2000/svg"
 width="240.000000pt" height="237.000000pt" viewBox="0 0 240.000000 237.000000"
 preserveAspectRatio="xMidYMid meet">

<g transform="translate(0.000000,237.000000) scale(0.100000,-0.100000)"
fill="#000000" stroke="none">
<path d="M20 1180 l0 -1180 159 0 159 0 49 118 c27 64 105 253 173 420 l125
302 46 0 46 0 46 -108 c25 -59 107 -246 181 -417 l134 -310 82 0 81 0 53 125
c30 69 104 244 166 390 62 146 117 277 122 293 9 25 13 27 72 27 l61 0 92
-223 c51 -122 129 -311 174 -420 l81 -197 139 0 139 0 0 1180 0 1181 -126 -3
-126 -3 -210 -493 -211 -494 -14 34 c-17 39 -171 405 -307 728 l-94 225 -82 0
-82 0 -46 -110 c-25 -60 -121 -290 -213 -510 l-168 -400 -27 60 c-30 68 -333
759 -386 880 l-35 80 -127 3 -126 3 0 -1181z m327 635 c112 -244 293 -656 293
-666 0 -4 -103 -253 -229 -553 l-228 -547 -7 898 c-3 494 -8 981 -11 1083 l-5
185 41 -85 c22 -47 88 -188 146 -315z m1919 308 c-13 -203 -19 -490 -25 -1206
l-6 -758 -52 123 c-29 68 -126 299 -217 515 l-165 392 83 194 c135 315 369
827 379 827 5 0 7 -38 3 -87z m-774 -591 l148 -363 -39 -92 -39 -92 -126 -3
-126 -3 1 498 c0 469 1 496 16 458 9 -22 83 -203 165 -403z m-342 -62 l0 -490
-136 0 -135 0 -35 76 c-19 41 -34 80 -34 86 0 10 73 187 260 630 38 92 70 172
70 178 0 5 2 10 5 10 3 0 5 -220 5 -490z m-1 -877 c0 -144 -4 -240 -9 -228
-98 236 -171 408 -184 438 l-16 37 105 0 105 0 -1 -247z m348 240 c-3 -5 -44
-100 -92 -213 -48 -113 -89 -207 -91 -209 -2 -2 -4 93 -4 212 l0 217 96 0 c52
0 93 -3 91 -7z"/>
</g>
</svg>
